<svg xmlns="http://www.w3.org/2000/svg" version="1.1" xmlns:xlink="http://www.w3.org/1999/xlink" xmlns:svgjs="http://svgjs.com/svgjs" width="2200" height="1200" preserveAspectRatio="none" viewBox="0 0 2200 1200"><g mask="url(&quot;#SvgjsMask47704&quot;)" fill="none"><rect width="528" height="528" clip-path="url(&quot;#SvgjsClipPath47705&quot;)" x="-197.14" y="466.96" fill="url(#SvgjsPattern47706)" transform="rotate(116.24, 66.86, 730.96)"></rect><rect width="402.08" height="402.08" clip-path="url(&quot;#SvgjsClipPath47707&quot;)" x="406.27" y="855.25" fill="url(#SvgjsPattern47708)" transform="rotate(61.69, 607.31, 1056.29)"></rect><path d="M1352.23 117.49L1363.64 111.69 1371.81 121.55 1383.23 115.74 1391.39 125.61 1402.81 119.8 1410.98 129.67M1350.6 125.32L1362.02 119.52 1370.19 129.38 1381.6 123.58 1389.77 133.44 1401.19 127.64 1409.36 137.5M1348.98 133.16L1360.4 127.35 1368.56 137.22 1379.98 131.41 1388.15 141.27 1399.56 135.47 1407.73 145.33" stroke="rgba(109, 105, 105, 1)" stroke-width="2.8" stroke-dasharray="3, 3"></path><path d="M856.93 437.28L869.65 435.83 873.85 447.93 886.58 446.48 890.78 458.58 903.51 457.13 907.71 469.23M852.67 444.05L865.39 442.6 869.59 454.7 882.32 453.25 886.52 465.35 899.25 463.91 903.45 476M848.41 450.82L861.13 449.37 865.33 461.47 878.06 460.02 882.26 472.12 894.99 470.68 899.19 482.77" stroke="rgba(229, 32, 43, 1)" stroke-width="2.34"></path><path d="M1973.48 1008.13L1970.05 1020.47 1957.26 1019.83 1953.83 1032.17 1941.04 1031.53 1937.61 1043.87 1924.82 1043.23M1968.8 1001.64L1965.37 1013.98 1952.58 1013.34 1949.15 1025.68 1936.36 1025.04 1932.93 1037.38 1920.14 1036.74M1964.13 995.15L1960.69 1007.49 1947.9 1006.85 1944.47 1019.19 1931.68 1018.55 1928.25 1030.89 1915.46 1030.25" stroke="rgba(229, 32, 43, 1)" stroke-width="1" stroke-dasharray="3, 2"></path><rect width="192" height="192" clip-path="url(&quot;#SvgjsClipPath47709&quot;)" x="817.64" y="-85.69" fill="url(#SvgjsPattern47710)" transform="rotate(197.11, 913.64, 10.31)"></rect><circle r="178.51789208030917" cx="2038.39" cy="353.08" fill="rgba(109, 105, 105, 1)"></circle><rect width="360" height="360" clip-path="url(&quot;#SvgjsClipPath47711&quot;)" x="760.32" y="-31.71" fill="url(#SvgjsPattern47712)" transform="rotate(106.52, 940.32, 148.29)"></rect><path d="M240.82999999999998 990.6500000000001 L37.44 1121.01L308.0591773885982 1224.7541773885982z" fill="rgba(109, 105, 105, 1)"></path></g><defs><mask id="SvgjsMask47704"><rect width="2200" height="1200" fill="#ffffff"></rect></mask><pattern x="0" y="0" width="528" height="6" patternUnits="userSpaceOnUse" id="SvgjsPattern47706"><rect width="528" height="3" x="0" y="0" fill="rgba(229, 32, 43, 1)"></rect><rect width="528" height="3" x="0" y="3" fill="rgba(0, 0, 0, 0)"></rect></pattern><clipPath id="SvgjsClipPath47705"><circle r="132" cx="66.86" cy="730.96"></circle></clipPath><pattern x="0" y="0" width="7.18" height="7.18" patternUnits="userSpaceOnUse" id="SvgjsPattern47708"><path d="M0 7.18L3.59 0L7.18 7.18" stroke="rgba(109, 105, 105, 1)" fill="none"></path></pattern><clipPath id="SvgjsClipPath47707"><circle r="100.52" cx="607.31" cy="1056.29"></circle></clipPath><pattern x="0" y="0" width="6" height="6" patternUnits="userSpaceOnUse" id="SvgjsPattern47710"><path d="M3 1L3 5M1 3L5 3" stroke="rgba(109, 105, 105, 1)" fill="none" stroke-width="1"></path></pattern><clipPath id="SvgjsClipPath47709"><circle r="48" cx="913.64" cy="10.31"></circle></clipPath><pattern x="0" y="0" width="6" height="6" patternUnits="userSpaceOnUse" id="SvgjsPattern47712"><path d="M3 1L3 5M1 3L5 3" stroke="rgba(109, 105, 105, 1)" fill="none" stroke-width="1.47"></path></pattern><clipPath id="SvgjsClipPath47711"><circle r="90" cx="940.32" cy="148.29"></circle></clipPath></defs></svg>