<svg xmlns="http://www.w3.org/2000/svg" version="1.1" xmlns:xlink="http://www.w3.org/1999/xlink" xmlns:svgjs="http://svgjs.com/svgjs" width="2200" height="1200" preserveAspectRatio="none" viewBox="0 0 2200 1200"><g mask="url(&quot;#SvgjsMask2061&quot;)" fill="none"><path d="M694.95 348.14L683.87 354.56 675.17 345.16 664.09 351.58 655.4 342.17 644.31 348.59 635.62 339.19M696.14 340.23L685.06 346.65 676.36 337.25 665.28 343.67 656.59 334.26 645.51 340.68 636.81 331.28" stroke="rgba(229, 32, 43, 1)" stroke-width="2.34"></path><circle r="198.3089802857179" cx="885.81" cy="1061.94" stroke="rgba(229, 32, 43, 1)" stroke-width="1.65"></circle><circle r="160.37575514302566" cx="2169.1" cy="147.38" fill="rgba(109, 105, 105, 1)"></circle><path d="M372.62 1126.44L360.13 1123.65 360.11 1110.84 347.62 1108.04 347.6 1095.23 335.11 1092.44 335.09 1079.63M378.87 1121.44L366.37 1118.64 366.36 1105.83 353.86 1103.04 353.85 1090.23 341.35 1087.43 341.34 1074.63" stroke="rgba(109, 105, 105, 1)" stroke-width="1"></path><rect width="656.04" height="656.04" clip-path="url(&quot;#SvgjsClipPath2062&quot;)" x="-270.16" y="150.95" fill="url(#SvgjsPattern2063)" transform="rotate(278.43, 57.86, 478.97)"></rect><rect width="468" height="468" clip-path="url(&quot;#SvgjsClipPath2064&quot;)" x="1542.15" y="192.32" fill="url(#SvgjsPattern2065)" transform="rotate(75.48, 1776.15, 426.32)"></rect><path d="M2115.81 18L2121.57 29.44 2111.68 37.57 2117.45 49.01 2107.56 57.14 2113.33 68.58 2103.44 76.71" stroke="rgba(229, 32, 43, 1)" stroke-width="2.55" stroke-dasharray="3, 3"></path><path d="M1769.52 1038.5L1775.55 1027.21 1787.9 1030.61 1793.93 1019.31 1806.27 1022.72 1812.3 1011.42 1824.65 1014.83M1772.68 1045.85L1778.71 1034.56 1791.05 1037.96 1797.08 1026.67 1809.43 1030.07 1815.46 1018.77 1827.81 1022.18M1775.83 1053.2L1781.86 1041.91 1794.21 1045.31 1800.24 1034.02 1812.59 1037.42 1818.62 1026.12 1830.96 1029.53" stroke="rgba(229, 32, 43, 1)" stroke-width="1.27" stroke-dasharray="2, 2"></path><path d="M1647.24 1110.79L1643.02 1122.88 1630.29 1121.41 1626.07 1133.49 1613.35 1132.02 1609.12 1144.11 1596.4 1142.64M1643 1104.01L1638.77 1116.1 1626.05 1114.63 1621.82 1126.72 1609.1 1125.25 1604.87 1137.33 1592.15 1135.86M1638.75 1097.23L1634.52 1109.32 1621.8 1107.85 1617.57 1119.94 1604.85 1118.47 1600.63 1130.56 1587.9 1129.09" stroke="rgba(109, 105, 105, 1)" stroke-width="1"></path></g><defs><mask id="SvgjsMask2061"><rect width="2200" height="1200" fill="#ffffff"></rect></mask><pattern x="0" y="0" width="9.94" height="9.94" patternUnits="userSpaceOnUse" id="SvgjsPattern2063"><path d="M0 9.94L4.97 0L9.94 9.94" stroke="rgba(229, 32, 43, 1)" fill="none"></path></pattern><clipPath id="SvgjsClipPath2062"><circle r="164.01" cx="57.86" cy="478.97"></circle></clipPath><pattern x="0" y="0" width="6" height="6" patternUnits="userSpaceOnUse" id="SvgjsPattern2065"><path d="M3 1L3 5M1 3L5 3" stroke="rgba(229, 32, 43, 1)" fill="none" stroke-width="1"></path></pattern><clipPath id="SvgjsClipPath2064"><circle r="117" cx="1776.15" cy="426.32"></circle></clipPath></defs></svg>